<?xml version="1.0" standalone="no"?>
<!DOCTYPE svg PUBLIC "-//W3C//DTD SVG 20010904//EN"
 "http://www.w3.org/TR/2001/REC-SVG-20010904/DTD/svg10.dtd">
<svg version="1.0" xmlns="http://www.w3.org/2000/svg"
 width="662.000000pt" height="119.000000pt" viewBox="0 0 662.000000 119.000000"
 preserveAspectRatio="xMidYMid meet">
<metadata>
Created by potrace 1.15, written by Peter Selinger 2001-2017
</metadata>
<g transform="translate(0.000000,119.000000) scale(0.100000,-0.100000)"
fill="#000000" stroke="none">
<path d="M789 1142 c-76 -26 -141 -72 -190 -138 -28 -37 -47 -53 -58 -50 -146
45 -237 8 -289 -115 -12 -27 -34 -56 -54 -69 -106 -73 -148 -145 -148 -255 0
-53 6 -82 24 -120 23 -48 79 -115 97 -115 15 0 10 67 -7 81 -48 39 -72 141
-50 212 20 67 55 109 120 143 53 27 56 32 66 80 15 73 75 124 146 124 29 0 80
-24 110 -52 l22 -20 31 59 c38 70 100 137 155 166 34 18 58 21 136 21 118 0
178 -23 245 -95 62 -67 87 -126 93 -221 l4 -76 49 -7 c102 -14 171 -88 177
-190 6 -94 -36 -164 -120 -200 -30 -12 -82 -15 -263 -15 l-225 0 0 -31 0 -30
243 3 c226 3 245 4 282 25 86 46 144 138 145 228 0 115 -48 190 -155 245 l-69
35 -12 67 c-24 130 -102 231 -222 290 -82 41 -196 48 -283 20z"/>
<path d="M2577 953 c-4 -3 -7 -129 -7 -280 l0 -273 30 0 30 0 0 280 0 280 -23
0 c-13 0 -27 -3 -30 -7z"/>
<path d="M4717 953 c-4 -3 -7 -129 -7 -280 0 -236 2 -273 15 -273 9 0 15 9 15
25 0 30 11 32 35 5 43 -47 150 -50 204 -4 45 37 65 100 59 186 -8 126 -54 178
-158 178 -55 0 -90 -14 -117 -48 -11 -13 -13 6 -13 101 0 91 -3 117 -13 117
-8 0 -17 -3 -20 -7z m224 -209 c40 -20 59 -68 59 -150 0 -115 -37 -164 -126
-164 -94 0 -130 55 -122 186 5 78 24 119 61 134 35 14 95 11 128 -6z"/>
<path d="M5870 680 c0 -180 4 -280 10 -280 6 0 10 9 10 19 0 23 16 36 25 21
12 -19 84 -50 115 -50 64 0 127 44 150 105 19 51 14 168 -10 215 -31 61 -71
82 -147 78 -53 -3 -67 -8 -93 -33 l-30 -29 0 117 c0 97 -3 117 -15 117 -13 0
-15 -38 -15 -280z m228 64 c39 -27 56 -73 56 -149 -1 -117 -39 -165 -132 -165
-42 0 -58 5 -77 24 -32 32 -49 99 -41 167 7 71 23 107 55 124 35 19 111 19
139 -1z"/>
<path d="M1905 921 c-77 -19 -115 -62 -115 -132 0 -68 32 -101 147 -155 71
-33 95 -49 103 -69 14 -36 3 -71 -29 -96 -23 -18 -36 -20 -106 -16 -44 2 -90
8 -102 12 -21 7 -23 4 -23 -23 0 -29 3 -31 57 -42 70 -15 153 -8 195 17 67 39
93 113 63 177 -15 31 -33 44 -124 89 -82 40 -108 58 -115 78 -28 83 50 128
171 98 46 -12 62 -5 63 28 0 23 -130 47 -185 34z"/>
<path d="M5193 919 c-75 -23 -118 -105 -89 -173 17 -41 53 -65 147 -101 100
-39 134 -82 113 -144 -16 -45 -68 -71 -143 -71 -36 0 -81 4 -99 9 -28 8 -32 7
-32 -9 0 -22 12 -27 88 -36 119 -13 213 33 228 111 14 79 -25 128 -139 171
-39 15 -84 36 -99 46 -55 38 -42 131 21 158 27 11 105 10 175 -2 29 -5 31 21
3 31 -40 15 -139 21 -174 10z"/>
<path d="M3940 660 c0 -253 1 -260 20 -260 19 0 20 7 20 105 l0 105 45 0 c79
0 145 20 184 55 35 32 36 36 36 104 0 63 -3 73 -28 99 -37 39 -86 52 -191 52
l-86 0 0 -260z m221 205 c57 -30 68 -123 20 -177 -28 -32 -32 -33 -120 -36
l-91 -4 0 114 c0 63 3 118 8 122 11 13 149 -2 183 -19z"/>
<path d="M710 790 l0 -70 110 0 110 0 0 -110 0 -110 65 0 65 0 0 180 0 180
-175 0 -175 0 0 -70z"/>
<path d="M6397 823 c-4 -3 -7 -39 -7 -80 l0 -73 -75 0 c-60 0 -75 -3 -75 -15
0 -12 15 -15 75 -15 l75 0 0 -75 c0 -60 3 -75 15 -75 12 0 15 15 15 75 l0 75
80 0 c64 0 80 3 80 15 0 12 -16 15 -80 15 l-80 0 0 80 c0 73 -6 91 -23 73z"/>
<path d="M2254 782 c-76 -36 -110 -105 -101 -209 3 -46 12 -75 31 -103 73
-111 240 -98 303 23 24 48 22 161 -5 213 -41 80 -145 114 -228 76z m121 -46
c46 -20 65 -60 65 -143 0 -84 -22 -127 -73 -141 -92 -26 -157 33 -157 142 0
120 71 181 165 142z"/>
<path d="M2797 786 c-57 -16 -61 -19 -52 -46 5 -15 12 -19 23 -15 38 15 99 21
129 13 22 -6 34 -17 42 -40 22 -62 19 -65 -66 -70 -98 -5 -150 -28 -170 -76
-29 -69 4 -132 77 -152 47 -13 104 -1 143 31 l26 20 7 -26 c5 -18 13 -25 31
-25 l25 0 -4 158 c-4 168 -12 197 -58 222 -33 17 -102 20 -153 6z m149 -237
c-9 -59 -23 -79 -63 -96 -41 -17 -94 -11 -114 13 -17 21 -16 72 3 91 19 19 68
31 132 32 l49 1 -7 -41z"/>
<path d="M3175 781 c-73 -33 -105 -90 -105 -184 0 -74 19 -123 61 -162 44 -40
104 -52 167 -35 34 9 42 15 42 34 0 23 -2 23 -70 18 -59 -4 -74 -2 -92 14 -67
60 -63 214 7 260 20 13 39 16 89 11 60 -6 64 -5 70 16 7 26 6 27 -41 38 -56
13 -83 11 -128 -10z"/>
<path d="M3484 781 c-49 -22 -79 -61 -95 -125 -24 -97 12 -206 81 -241 44 -23
118 -28 170 -13 38 12 46 18 48 42 3 25 1 28 -15 21 -10 -5 -48 -10 -84 -13
-80 -5 -110 10 -133 69 -9 22 -16 44 -16 49 0 6 54 10 135 10 l135 0 0 39 c0
83 -45 153 -109 171 -50 14 -70 12 -117 -9z m128 -59 c20 -19 40 -77 30 -86
-3 -3 -47 -6 -99 -6 -90 0 -93 1 -93 23 1 31 23 67 51 84 30 17 87 10 111 -15z"/>
<path d="M4320 641 c0 -81 5 -162 11 -179 26 -75 139 -94 224 -37 l35 24 0
-24 c0 -16 6 -25 15 -25 13 0 15 28 15 195 0 160 -3 195 -14 195 -11 0 -15
-29 -18 -137 -6 -190 -26 -223 -136 -223 -89 1 -102 30 -102 221 0 117 -2 139
-15 139 -13 0 -15 -23 -15 -149z"/>
<path d="M5472 626 l3 -165 29 -30 c50 -52 144 -52 210 0 l26 20 0 -25 c0 -16
6 -26 15 -26 13 0 15 28 15 195 0 167 -2 195 -15 195 -13 0 -15 -20 -15 -122
0 -197 -22 -238 -130 -238 -48 0 -60 4 -81 26 -23 24 -24 33 -28 180 -3 127
-6 154 -18 154 -12 0 -14 -25 -11 -164z"/>
<path d="M440 520 l0 -70 110 0 110 0 0 -110 0 -111 68 3 67 3 0 175 0 175
-177 3 -178 2 0 -70z"/>
<path d="M250 180 l0 -140 140 0 140 0 0 140 0 140 -140 0 -140 0 0 -140z"/>
</g>
</svg>
